<svg xmlns="http://www.w3.org/2000/svg" width="32.625" height="36.299" viewBox="0 0 32.625 36.299">
  <g id="Groupe_215" data-name="Groupe 215" transform="translate(-59.688 -432.891)">
    <g id="Groupe_172" data-name="Groupe 172" transform="translate(82.734 435.962)">
      <g id="noun-head-1505783" transform="translate(-20 0)">
        <g id="Group" transform="translate(0)">
          <path id="Compound_Path" data-name="Compound Path" d="M7.971,5.968A3.168,3.168,0,0,1,11.139,2.8h12.39A3.168,3.168,0,0,1,26.7,5.968v.317a10.573,10.573,0,0,1,7.462,9.68L37.5,24.483a.7.7,0,0,1-.6.95l-2.816.282-.211,2.851a2.816,2.816,0,0,1-2.992,2.6l-1.971-.141v4.294a.7.7,0,0,1-.7.7H14.131a.7.7,0,0,1-.7-.7V28.46a15.065,15.065,0,0,0-.07-2.675c-.035-.282-.035-.563-.07-.81-.07-.88-.176-1.9-.317-2.992s-.422-3.45-.458-5.069H11.139a3.168,3.168,0,0,1-3.168-3.168Zm6.406,15.84c.141,1.126.246,2.182.317,3.062l.07.81a16.543,16.543,0,0,1,.07,2.886V34.62H27.506V30.255a.669.669,0,0,1,.739-.7l2.746.176a1.408,1.408,0,0,0,1.514-1.3l.282-3.45a.7.7,0,0,1,.6-.634l2.5-.246-3.027-7.779a.7.7,0,0,1-.035-.246,9.068,9.068,0,0,0-6.054-8.307v5.949A3.168,3.168,0,0,1,23.6,16.88h-2.71v2.57a.7.7,0,0,1-.387.634l-.317.07a.7.7,0,0,1-.422-.141L15.5,16.88H13.955A38.789,38.789,0,0,0,14.377,21.807Zm-5-8.1a1.76,1.76,0,0,0,1.76,1.76h4.576a.7.7,0,0,1,.422.141l3.344,2.464v-1.9a.7.7,0,0,1,.7-.7h3.344a1.76,1.76,0,0,0,1.76-1.76V5.968a1.76,1.76,0,0,0-1.76-1.76H11.139a1.76,1.76,0,0,0-1.76,1.76Z" transform="translate(-7.971 -2.8)" fill="#212121"/>
        </g>
      </g>
    </g>
    <rect id="Rectangle_217" data-name="Rectangle 217" width="21.999" height="26.888" transform="translate(59.688 432.891)" fill="#fff"/>
    <g id="noun-docs-5176580" transform="translate(60.91 433.147)">
      <path id="Tracé_247" data-name="Tracé 247" d="M24.258,24.265s0-.011,0-.015a.563.563,0,0,1,.1-.163s0-.008.008-.011l6.9-7.4a.574.574,0,0,1,.417-.182H42.038a1.739,1.739,0,0,1,1.737,1.737V40.168A1.739,1.739,0,0,1,42.038,41.9H25.957a1.739,1.739,0,0,1-1.737-1.737v-15.7h0A.591.591,0,0,1,24.258,24.265Zm6.884-5.78L26.1,23.893h4.445a.6.6,0,0,0,.6-.6ZM25.358,40.168a.6.6,0,0,0,.6.6H42.038a.6.6,0,0,0,.6-.6V18.231a.6.6,0,0,0-.6-.6H32.279V23.3a1.739,1.739,0,0,1-1.737,1.737H25.358Z" transform="translate(-24.22 -16.49)" fill="#212121"/>
      <path id="Tracé_248" data-name="Tracé 248" d="M46.988,48.039a.568.568,0,0,1-.569.569h-8.31a.569.569,0,1,1,0-1.138h8.31A.571.571,0,0,1,46.988,48.039Z" transform="translate(-32.485 -35.72)" fill="#212121"/>
      <path id="Tracé_249" data-name="Tracé 249" d="M38.105,54.55h8.313a.569.569,0,0,1,0,1.138h-8.31a.569.569,0,0,1,0-1.138Z" transform="translate(-32.485 -40.115)" fill="#212121"/>
      <path id="Tracé_250" data-name="Tracé 250" d="M38.105,61.63h8.313a.569.569,0,0,1,0,1.138h-8.31a.569.569,0,0,1,0-1.138Z" transform="translate(-32.485 -44.51)" fill="#212121"/>
      <path id="Tracé_251" data-name="Tracé 251" d="M38.109,68.71h4.157a.569.569,0,1,1,0,1.138H38.109a.569.569,0,1,1,0-1.138Z" transform="translate(-28.332 -48.905)" fill="#212121"/>
    </g>
  </g>
</svg>
