<svg xmlns="http://www.w3.org/2000/svg" baseProfile="basic" viewBox="0 0 48 48"><path fill="#6be3a2" d="M38.009,38.825l-0.76-2.291c-0.93-2.798-2.688-5.186-5.083-6.904 c-2.391-1.727-5.214-2.64-8.166-2.64c-6.039,0-11.364,3.836-13.249,9.545l-0.76,2.29C9.864,39.208,18.958,44,24,44 S38.136,39.208,38.009,38.825z"/><path fill="#324561" d="M24,25c-3.859,0-7-3.364-7-7.5s3.141-7.5,7-7.5s7,3.364,7,7.5S27.859,25,24,25z M24,12 c-2.757,0-5,2.468-5,5.5s2.243,5.5,5,5.5s5-2.468,5-5.5S26.757,12,24,12z"/><path fill="#324561" d="M24,45c-9.954,0-18.61-7.07-20.582-16.812C3.309,27.647,3.659,27.12,4.2,27.01 c0.543-0.11,1.068,0.241,1.179,0.782C7.162,36.604,14.993,43,24,43c9.209,0,17.073-6.567,18.699-15.615 c0.098-0.543,0.617-0.904,1.161-0.808c0.544,0.098,0.905,0.617,0.808,1.161C42.87,37.74,34.179,45,24,45z"/><path fill="#324561" d="M46.221,34.037c-0.391,0-0.763-0.231-0.923-0.614l-1.985-4.755l-4.204,2.979 c-0.451,0.321-1.074,0.214-1.394-0.237c-0.319-0.45-0.214-1.074,0.237-1.394l5.224-3.703c0.248-0.176,0.564-0.231,0.854-0.146 c0.292,0.083,0.53,0.295,0.647,0.575l2.467,5.908c0.213,0.51-0.028,1.096-0.537,1.309C46.48,34.013,46.35,34.037,46.221,34.037z"/><path fill="#324561" d="M4.317,21.438c-0.059,0-0.118-0.005-0.178-0.016c-0.544-0.098-0.905-0.617-0.808-1.161 C5.13,10.26,13.821,3,24,3c9.954,0,18.61,7.07,20.582,16.812c0.109,0.541-0.241,1.068-0.782,1.179 c-0.537,0.113-1.068-0.24-1.179-0.782C40.838,11.396,33.007,5,24,5C14.791,5,6.927,11.567,5.301,20.615 C5.214,21.099,4.792,21.438,4.317,21.438z"/><path fill="#324561" d="M4.246,21.871c-0.093,0-0.186-0.013-0.275-0.039c-0.292-0.083-0.53-0.295-0.647-0.575l-2.467-5.908 c-0.213-0.51,0.028-1.096,0.537-1.309c0.509-0.212,1.096,0.028,1.309,0.537l1.985,4.755l4.204-2.979 c0.451-0.32,1.075-0.214,1.394,0.237c0.319,0.45,0.214,1.074-0.237,1.394l-5.224,3.703C4.653,21.808,4.451,21.871,4.246,21.871z"/></svg>