<svg xmlns="http://www.w3.org/2000/svg" width="245.097" height="257.352" viewBox="0 0 245.097 257.352"><g transform="translate(334.549 92)"><g transform="translate(-342.549 -98)"><path d="M89.274,26A61.346,61.346,0,0,0,28,87.274c0,17.545,7.36,33.149,13.87,46.913,5.469,11.6,10.639,22.547,10.639,32.743v24.51a6.124,6.124,0,0,0,6.127,6.127h61.274a6.124,6.124,0,0,0,6.127-6.127v-24.51c0-10.2,5.17-21.147,10.639-32.743,6.51-13.764,13.87-29.368,13.87-46.913A61.346,61.346,0,0,0,89.274,26Zm24.51,159.313H64.764V173.058h49.019Zm11.824-56.355c-5.11,10.819-9.993,21.135-11.405,31.846H64.346c-1.412-10.711-6.295-21.027-11.405-31.846-6.235-13.224-12.686-26.886-12.686-41.683a49.019,49.019,0,0,1,98.039,0C138.294,102.072,131.843,115.733,125.608,128.957Z" transform="translate(41.274 41.274)" fill="#7575ff"/><path d="M52.127,42.765a6.124,6.124,0,0,0,6.127-6.127V12.127a6.127,6.127,0,1,0-12.255,0v24.51a6.124,6.124,0,0,0,6.127,6.127Z" transform="translate(78.421 0)" fill="#7575ff"/><path d="M46.82,32.154,29.491,14.824a6.127,6.127,0,1,0-8.665,8.665l17.329,17.33a6.127,6.127,0,1,0,8.665-8.665Z" transform="translate(22.765 14.506)" fill="#7575ff"/><path d="M95.1,14.824a6.125,6.125,0,0,0-8.664,0L69.107,32.154a6.127,6.127,0,1,0,8.665,8.666L95.1,23.49A6.125,6.125,0,0,0,95.1,14.824Z" transform="translate(122.404 14.506)" fill="#7575ff"/><path d="M44.765,44.127A6.124,6.124,0,0,0,38.637,38H14.127a6.127,6.127,0,0,0,0,12.255h24.51a6.124,6.124,0,0,0,6.127-6.127Z" transform="translate(0 66.039)" fill="#7575ff"/><path d="M106.637,38H82.127a6.127,6.127,0,1,0,0,12.255h24.51a6.127,6.127,0,1,0,0-12.255Z" transform="translate(140.332 66.039)" fill="#7575ff"/><path d="M103.087,71.219,81.869,58.964a6.123,6.123,0,1,0-6.127,10.6L96.96,81.822a6.123,6.123,0,0,0,6.127-10.6Z" transform="translate(133.482 107.605)" fill="#7575ff"/><path d="M36.674,58.964,15.456,71.219a6.123,6.123,0,1,0,6.127,10.6L42.8,69.567a6.123,6.123,0,1,0-6.127-10.6Z" transform="translate(9.071 107.605)" fill="#7575ff"/><path d="M82.892,86H46.127a6.127,6.127,0,0,0,0,12.255H82.892a6.127,6.127,0,0,0,0-12.255Z" transform="translate(66.039 165.097)" fill="#7575ff"/></g></g></svg>