<svg xmlns="http://www.w3.org/2000/svg" width="35.077" height="35.077" viewBox="0 0 35.077 35.077"><path d="M17.539,0A17.539,17.539,0,1,1,0,17.539,17.539,17.539,0,0,1,17.539,0Z" fill="none"/><g transform="translate(8.16 6.128)"><path d="M159.565,420.313a2.074,2.074,0,0,1-2.065-2.065V404.365a2.074,2.074,0,0,1,2.065-2.065,2.052,2.052,0,0,1,2.065,2.065v13.882A2.1,2.1,0,0,1,159.565,420.313Z" transform="translate(-157.5 -397.357)" fill="#fff"/><path d="M181.165,405.713a2.074,2.074,0,0,1-2.065-2.065V389.765a2.074,2.074,0,0,1,2.065-2.065,2.052,2.052,0,0,1,2.065,2.065v13.882A2.074,2.074,0,0,1,181.165,405.713Z" transform="translate(-171.787 -387.7)" fill="#fff"/><path d="M202.765,408.424a2.074,2.074,0,0,1-2.065-2.065v-8.194a2.074,2.074,0,0,1,2.065-2.065,2.052,2.052,0,0,1,2.065,2.065v8.194A2.074,2.074,0,0,1,202.765,408.424Z" transform="translate(-186.073 -393.256)" fill="#fff"/></g></svg>