<svg xmlns="http://www.w3.org/2000/svg" width="44.272" height="44.268" viewBox="0 0 44.272 44.268"><g transform="translate(-0.25 0.25)"><path d="M-.25-.25H44.018V44.018H-.25Zm43.768.5H.25V43.518H43.518Z" transform="translate(0.504)" fill="#1e1e1e"/><g transform="translate(0.5 0.812)"><path d="M.5,45.137V12.421A2.921,2.921,0,0,1,3.421,9.5H37.88A2.921,2.921,0,0,1,40.8,12.421V23.263h.546a2.921,2.921,0,0,1,2.921,2.921V45.137a6.506,6.506,0,0,1-6.506,6.506H7.006A6.506,6.506,0,0,1,.5,45.137Zm39.532-3.923a.769.769,0,0,1-.769-.769V12.421a1.382,1.382,0,0,0-1.382-1.382H3.421a1.382,1.382,0,0,0-1.382,1.382V45.137A4.968,4.968,0,0,0,7.006,50.1H37.761a4.967,4.967,0,0,0,4.968-4.968V26.184A1.382,1.382,0,0,0,41.347,24.8H40.8V40.445a.769.769,0,0,1-.769.769h0Zm-34.854,0H36.123a.769.769,0,0,0,0-1.539H5.178a.769.769,0,0,0,0,1.539Zm0-5.343H36.123a.769.769,0,0,0,0-1.539H5.178a.769.769,0,0,0,0,1.539Zm0-5.343H36.123a.769.769,0,0,0,0-1.539H5.178a.769.769,0,0,0,0,1.539Zm30.945-15.4a2.166,2.166,0,0,0-2.166-2.166H7.344a2.166,2.166,0,0,0-2.166,2.166v7.124a2.166,2.166,0,0,0,2.166,2.166H33.957a2.166,2.166,0,0,0,2.166-2.166V15.128Zm-1.539,0a.627.627,0,0,0-.627-.627H7.344a.627.627,0,0,0-.627.627v7.124a.627.627,0,0,0,.627.627H33.957a.627.627,0,0,0,.627-.627Z" transform="translate(-0.5 -9.5)" fill="#1e1e1e" fill-rule="evenodd"/><path d="M37.761,51.893H7.006A6.756,6.756,0,0,1,.25,45.137V12.421A3.171,3.171,0,0,1,3.421,9.25H37.88a3.171,3.171,0,0,1,3.171,3.171V23.013h.3a3.174,3.174,0,0,1,3.171,3.171V45.137a6.756,6.756,0,0,1-6.756,6.756ZM3.421,9.75A2.671,2.671,0,0,0,.75,12.421V45.137a6.256,6.256,0,0,0,6.256,6.256H37.761a6.256,6.256,0,0,0,6.256-6.256V26.184a2.674,2.674,0,0,0-2.671-2.671h-.8V12.421A2.671,2.671,0,0,0,37.88,9.75Zm34.341,40.6H7.006a5.218,5.218,0,0,1-5.218-5.218V12.421a1.632,1.632,0,0,1,1.632-1.632H37.88a1.632,1.632,0,0,1,1.632,1.632V40.445a.519.519,0,0,0,1.039,0V24.552h.8a1.634,1.634,0,0,1,1.632,1.632V45.137a5.217,5.217,0,0,1-5.218,5.218ZM3.421,11.289a1.132,1.132,0,0,0-1.132,1.132V45.137a4.718,4.718,0,0,0,4.718,4.718H37.761a4.717,4.717,0,0,0,4.718-4.718V26.184a1.133,1.133,0,0,0-1.132-1.132h-.3V40.445a1.019,1.019,0,1,1-2.039,0V12.421a1.132,1.132,0,0,0-1.132-1.132Zm32.7,30.176H5.178a1.019,1.019,0,1,1,0-2.039H36.123a1.019,1.019,0,1,1,0,2.039ZM5.178,39.926a.519.519,0,1,0,0,1.039H36.123a.519.519,0,1,0,0-1.039Zm30.945-3.8H5.178a1.019,1.019,0,1,1,0-2.039H36.123a1.019,1.019,0,1,1,0,2.039ZM5.178,34.583a.519.519,0,1,0,0,1.039H36.123a.519.519,0,1,0,0-1.039Zm30.945-3.8H5.178a1.019,1.019,0,1,1,0-2.039H36.123a1.019,1.019,0,0,1,0,2.039ZM5.178,29.24a.519.519,0,1,0,0,1.039H36.123a.519.519,0,0,0,0-1.039Zm28.779-4.573H7.344a2.418,2.418,0,0,1-2.416-2.416V15.128a2.418,2.418,0,0,1,2.416-2.416H33.957a2.418,2.418,0,0,1,2.416,2.416v7.124A2.418,2.418,0,0,1,33.957,24.667ZM7.344,13.212a1.918,1.918,0,0,0-1.916,1.916v7.124a1.918,1.918,0,0,0,1.916,1.916H33.957a1.918,1.918,0,0,0,1.916-1.916V15.128a1.918,1.918,0,0,0-1.916-1.916Zm26.614,9.916H7.344a.878.878,0,0,1-.877-.877V15.128a.878.878,0,0,1,.877-.877H33.957a.878.878,0,0,1,.877.877v7.124A.878.878,0,0,1,33.957,23.128ZM7.344,14.751a.377.377,0,0,0-.377.377v7.124a.377.377,0,0,0,.377.377H33.957a.377.377,0,0,0,.377-.377V15.128a.377.377,0,0,0-.377-.377Z" transform="translate(-0.5 -9.5)" fill="#1e1e1e"/></g></g></svg>