<svg xmlns="http://www.w3.org/2000/svg" width="41.191" height="35.5" viewBox="0 0 41.191 35.5"><g transform="translate(-1.1 -3.158)"><g transform="translate(1.1 3.158)"><path d="M36.555,3.158H6.836A5.743,5.743,0,0,0,1.1,8.894V28.2a5.743,5.743,0,0,0,5.736,5.736H23.244a1.244,1.244,0,0,0,0-2.488H6.836A3.252,3.252,0,0,1,3.588,28.2V18.211H39.8v2.129a1.244,1.244,0,1,0,2.488,0V8.9A5.745,5.745,0,0,0,36.555,3.158ZM6.836,5.647H36.555A3.252,3.252,0,0,1,39.8,8.9v1.182H3.588V8.9A3.252,3.252,0,0,1,6.836,5.647ZM3.588,15.721V12.567H39.8v3.154Z" transform="translate(-1.1 -3.158)" fill="#aaf"/><path d="M6.652,18.423h3.811a1.244,1.244,0,0,0,0-2.488H6.652a1.244,1.244,0,1,0,0,2.488Z" transform="translate(0.547 1.726)" fill="#aaf"/><path d="M6.652,21.812h7.622a1.244,1.244,0,1,0,0-2.488H6.652a1.244,1.244,0,1,0,0,2.488Z" transform="translate(0.547 3.021)" fill="#aaf"/><path d="M27.365,20.957l-2.227,1.8-.484-.616A1.245,1.245,0,0,0,22.7,23.673l1.262,1.609a1.247,1.247,0,0,0,.838.469,1.206,1.206,0,0,0,.141.008,1.248,1.248,0,0,0,.781-.275L28.925,22.9a1.245,1.245,0,0,0-1.561-1.941Z" transform="translate(7.053 3.541)" fill="#aaf"/><path d="M33.973,19.266l-5.546-2.788a2.688,2.688,0,0,0-2.409,0l-5.543,2.785A2.7,2.7,0,0,0,19,21.725c.058,2.646.832,9.076,6.741,11.643a3.732,3.732,0,0,0,2.97,0c5.909-2.565,6.683-9,6.741-11.641A2.692,2.692,0,0,0,33.973,19.266ZM27.717,31.087h0a1.253,1.253,0,0,1-.988,0c-4.592-1.993-5.2-7.248-5.246-9.416a.2.2,0,0,1,.108-.184L27.132,18.7a.21.21,0,0,1,.09-.022.192.192,0,0,1,.087.021l5.546,2.788a.194.194,0,0,1,.106.182C32.914,23.838,32.307,29.092,27.717,31.087Z" transform="translate(5.74 1.825)" fill="#aaf"/></g></g></svg>