<svg xmlns="http://www.w3.org/2000/svg" width="54.063" height="56.301" viewBox="0 0 54.063 56.301"><g transform="translate(47.028 -387.757) rotate(34)"><path d="M6278.346,334.036l2.717,4.029-11.118,16.782s5.949,8.35.787,16.016-14.861,9.643-21.3,3.21-4.159-17.538.552-20.907,4.782-3.226,4.782-3.226l2.718,4.029,7.636-5.15-2.718-4.029Z" transform="translate(-6047.266 0)" fill="#ff4d4d"/><path d="M6.618,9.083a1.994,1.994,0,0,1-1.462-.635L-1.461,1.365a2,2,0,0,1,.1-2.827,2,2,0,0,1,2.827.1L8.079,5.717A2,2,0,0,1,6.618,9.083Z" transform="translate(202.611 335.014) rotate(7)" fill="#ff4d4d"/><path d="M3.016,6.287a2,2,0,0,1-1.638-.85L-1.636,1.15A2,2,0,0,1-1.15-1.636a2,2,0,0,1,2.786.486L4.65,3.136A2,2,0,0,1,3.016,6.287Z" transform="matrix(0.966, 0.259, -0.259, 0.966, 211.67, 334.078)" fill="#ff4d4d"/><path d="M2.738,5.892A2,2,0,0,1,1.1,5.042L-1.636,1.15A2,2,0,0,1-1.15-1.636a2,2,0,0,1,2.786.486L4.373,2.741A2,2,0,0,1,2.738,5.892Z" transform="matrix(0.966, -0.259, 0.259, 0.966, 199.443, 342.994)" fill="#ff4d4d"/><circle cx="5.552" cy="5.552" r="5.552" transform="translate(206.359 358.192)" fill="#fff"/></g></svg>